PathFileType	4	(X/Y/Z)	TVC_39_BWA_03_walk_RCNL2025.trc
DataRate	CameraRate	NumFrames	NumMarkers	Units	OrigDataRate	OrigDataStartFrame	OrigNumFrames
100	100	11	27	mm	100	1030	1176
Frame#	Time	R_Shoulder			L_Shoulder			C7			J_Notch			R_Elbow			L_Elbow			R_Wrist			L_Wrist			R_Asis			L_Asis			R_Psis			L_Psis			Sacral			Thoracic			Sternum			R_Thigh_Lateral			R_Knee_Lateral			R_Shank_Lateral			R_Ankle_Lateral			R_Heel			R_Toe			L_Thigh_Lateral			L_Knee_Lateral			L_Shank_Lateral			L_Ankle_Lateral			L_Heel			L_Toe		
		X1	Y1	Z1	X2	Y2	Z2	X3	Y3	Z3	X4	Y4	Z4	X5	Y5	Z5	X6	Y6	Z6	X7	Y7	Z7	X8	Y8	Z8	X9	Y9	Z9	X10	Y10	Z10	X11	Y11	Z11	X12	Y12	Z12	X13	Y13	Z13	X14	Y14	Z14	X15	Y15	Z15	X16	Y16	Z16	X17	Y17	Z17	X18	Y18	Z18	X19	Y19	Z19	X20	Y20	Z20	X21	Y21	Z21	X22	Y22	Z22	X23	Y23	Z23	X24	Y24	Z24	X25	Y25	Z25	X26	Y26	Z26	X27	Y27	Z27
1030	10.29000000	1312.381348	1480.948364	-1.662825	1357.191040	1477.692749	-366.930359	1297.673584	1540.997925	-194.814774	1446.942749	1418.304565	-177.864410	1320.971924	1163.246948	123.211021	1308.760620	1167.907837	-490.749451	1436.782288	934.702240	108.889736	1394.563904	920.255432	-462.270935	1383.141235	952.502441	-19.443220	1415.203979	929.349182	-312.687531	1194.703857	961.374207	-131.009811	1204.003540	951.125488	-236.785812	1199.353699	956.249847	-183.897812	1205.162842	1214.927612	-203.186188	1489.436157	1258.117920	-158.718872	1374.227905	766.982727	79.383324	1443.716797	506.123810	25.895067	1412.584717	321.233856	91.296898	1466.046265	95.494453	13.630834	1429.749390	77.591553	-42.329742	1614.123047	59.852402	14.205289	1358.400513	672.161133	-372.551880	1360.574951	453.655731	-276.662140	1300.287354	317.663727	-324.203735	1237.712036	67.722000	-216.931229	1191.328613	57.914738	-159.437866	1376.546509	38.131763	-224.193253
1031	10.30000000	1314.045044	1480.388916	-0.753183	1358.129761	1477.298340	-366.128235	1298.977905	1540.515259	-193.889465	1448.388306	1418.014893	-177.268448	1322.597534	1162.596924	123.923462	1310.418823	1167.414673	-490.026672	1438.049805	933.879272	109.884178	1396.712769	919.925751	-461.515320	1386.258667	951.724976	-19.489605	1417.018066	929.348999	-312.950500	1197.297241	960.535095	-130.128830	1206.130981	950.529358	-235.997726	1201.714111	955.532227	-183.063278	1206.878662	1214.266479	-202.031311	1491.148071	1257.879150	-158.439758	1377.848145	765.840576	78.927994	1447.731323	505.110962	24.512455	1416.102051	320.175354	89.494804	1467.036011	94.517746	10.721502	1430.240479	77.043556	-45.163078	1614.730225	57.507023	10.460768	1360.105103	672.005737	-372.724609	1361.527710	453.360443	-276.855011	1300.719849	317.510406	-324.345886	1237.737915	67.723381	-216.910934	1191.364258	57.967617	-159.401459	1376.526855	38.123924	-224.256622
1032	10.31000000	1315.748901	1479.810059	0.217378	1359.032715	1476.902710	-365.271637	1300.292480	1540.026611	-192.897339	1449.850952	1417.730347	-176.635818	1324.294800	1161.924927	124.684059	1312.074951	1166.914795	-489.257080	1439.398132	933.041199	110.899323	1398.897644	919.606262	-460.723679	1389.474854	950.947998	-19.534771	1418.865356	929.351746	-313.204742	1199.955933	959.689331	-129.202377	1208.309326	949.927856	-235.164062	1204.132629	954.808594	-182.183220	1208.629639	1213.595337	-200.807724	1492.893433	1257.648193	-158.143921	1381.439819	764.595032	78.391319	1451.494263	503.982758	23.096622	1419.418335	319.028992	87.787491	1467.673706	93.415062	7.932963	1430.389526	76.275337	-47.847874	1615.033447	55.244873	6.899451	1361.792969	671.841980	-372.898468	1362.497314	453.055389	-277.041321	1301.154785	317.357056	-324.486847	1237.758667	67.724182	-216.888931	1191.401123	58.027077	-159.365128	1376.501831	38.116562	-224.327835
1033	10.32000000	1317.497437	1479.213501	1.247110	1359.906982	1476.508057	-364.361816	1301.622559	1539.534180	-191.839767	1451.334961	1417.451660	-175.967041	1326.066650	1161.233032	125.491829	1313.730225	1166.409058	-488.438538	1440.829895	932.190186	111.932121	1401.117554	919.298035	-459.897049	1392.780884	950.176880	-19.575951	1420.746582	929.355530	-313.445221	1202.675415	958.842529	-128.235031	1210.537476	949.324951	-234.288330	1206.606445	954.083740	-181.261681	1210.418213	1212.917480	-199.520020	1494.674683	1257.425537	-157.830673	1385.025513	763.256592	77.771133	1454.982300	502.746399	21.652613	1422.515381	317.793854	86.170807	1468.024170	92.198456	5.278186	1430.281738	75.290154	-50.380424	1615.111816	53.121082	3.590521	1363.470093	671.668640	-373.061676	1363.491333	452.740204	-277.214600	1301.600342	317.204559	-324.620972	1237.775269	67.725029	-216.864441	1191.437988	58.090702	-159.325882	1376.471313	38.109341	-224.405457
1034	10.33000000	1319.294434	1478.600830	2.333923	1360.760864	1476.116943	-363.400208	1302.973511	1539.040161	-190.718475	1452.844849	1417.179565	-175.262512	1327.915649	1160.523926	126.345276	1315.386108	1165.899414	-487.568939	1442.348022	931.328644	112.979717	1403.371033	919.002319	-459.036224	1396.166382	949.417114	-19.609842	1422.662476	929.358337	-313.666443	1205.450806	958.000793	-127.231865	1212.813599	948.724731	-233.374588	1209.132202	953.362762	-180.303226	1212.246338	1212.236694	-198.173538	1496.494263	1257.211426	-157.498917	1388.630371	761.840454	77.070435	1458.180908	501.413239	20.187868	1425.380249	316.473480	84.641151	1468.151001	90.883049	2.768823	1429.997192	74.099739	-52.757580	1615.040161	51.178982	0.593157	1365.141968	671.485107	-373.202454	1364.516479	452.414978	-277.368286	1302.064453	317.053894	-324.742188	1237.789307	67.726509	-216.836700	1191.473999	58.155258	-159.280426	1376.435547	38.102016	-224.487610
1035	10.34000000	1321.143311	1477.974365	3.475408	1361.603394	1475.732178	-362.388428	1304.350708	1538.547119	-189.535645	1454.385132	1416.914795	-174.522583	1329.844727	1159.800171	127.242371	1317.044556	1165.388184	-486.646606	1443.955017	930.459106	114.039478	1405.656311	918.720551	-458.141693	1399.619263	948.674316	-19.632666	1424.613159	929.358154	-313.862488	1208.276001	957.170654	-126.198318	1215.135498	948.131836	-232.427322	1211.705750	952.651245	-179.312820	1214.116089	1211.556885	-196.774460	1498.354004	1257.005981	-157.147232	1392.276855	760.365845	76.298134	1461.084961	499.998627	18.712280	1428.006714	315.076447	83.196434	1468.115845	89.486946	0.415328	1429.609253	72.724693	-54.976051	1614.886597	49.448151	-2.048421	1366.814087	671.290771	-373.310150	1365.578003	452.080353	-277.495453	1302.554688	316.906097	-324.844116	1237.802124	67.729095	-216.804916	1191.508179	58.217461	-159.225677	1376.395386	38.094456	-224.571930
1036	10.35000000	1323.047241	1477.336060	4.668871	1362.444946	1475.357300	-361.328247	1305.759888	1538.057617	-188.293777	1455.960205	1416.657959	-173.747513	1331.856445	1159.064819	128.180573	1318.708008	1164.878540	-485.670349	1445.653503	929.584320	115.108967	1407.971375	918.454407	-457.213760	1403.126099	947.953979	-19.640224	1426.598755	929.353210	-314.027313	1211.144043	956.359192	-125.140091	1217.500244	947.550964	-231.451401	1214.322144	951.955078	-178.295746	1216.028809	1210.882080	-195.329544	1500.255737	1256.809448	-156.773865	1395.979370	758.855103	75.469292	1463.699219	498.521667	17.238077	1430.396851	313.616699	81.836746	1467.976440	88.031120	-1.773094	1429.181885	71.194008	-57.032055	1614.711670	47.943993	-4.308757	1368.490967	671.084656	-373.376038	1366.679443	451.737579	-277.589050	1303.078125	316.762451	-324.920502	1237.815063	67.733170	-216.768219	1191.539795	58.274559	-159.159027	1376.351685	38.086639	-224.655807
1037	10.36000000	1325.008667	1476.688599	5.911366	1363.296143	1474.995483	-360.221680	1307.206421	1537.574463	-186.995758	1457.574463	1416.409668	-172.937439	1333.953247	1158.321045	129.156815	1320.379150	1164.374390	-484.639618	1447.446167	928.707184	116.185944	1410.313843	918.205688	-456.252426	1406.672119	947.261414	-19.627981	1428.618896	929.341736	-314.154694	1214.047607	955.573792	-124.062996	1219.904419	946.987000	-230.451935	1216.976013	951.280396	-177.257465	1217.985718	1210.216675	-193.846100	1502.200806	1256.621704	-156.376770	1399.741333	757.332397	74.604660	1466.037964	497.004761	15.779598	1432.561768	312.113434	80.564545	1467.785645	86.539284	-3.788639	1428.767944	69.543869	-58.921261	1614.565796	46.668907	-6.182709	1370.176392	670.865723	-373.393066	1367.822266	451.388519	-277.642090	1303.640625	316.624512	-324.965271	1237.829956	67.739098	-216.725723	1191.568848	58.324741	-159.078857	1376.305786	38.078671	-224.736435
1038	10.37000000	1327.029175	1476.034424	7.199728	1364.168701	1474.650513	-359.070831	1308.695679	1537.100098	-185.644745	1459.231689	1416.170410	-172.092422	1336.137085	1157.571777	130.167587	1322.061157	1163.880127	-483.554718	1449.335266	927.830688	117.268341	1412.681091	917.976471	-455.257492	1410.241699	946.601440	-19.591141	1430.672729	929.322021	-314.238464	1216.978394	954.821838	-122.972809	1222.344116	946.445068	-229.434143	1219.661255	950.633453	-176.203476	1219.987427	1209.564697	-192.331741	1504.190063	1256.442627	-155.953583	1403.553345	755.823303	73.729263	1468.125366	495.472870	14.352947	1434.521362	310.590424	79.384415	1467.589600	85.037430	-5.625167	1428.408203	67.816017	-60.639133	1614.488647	45.614532	-7.684275	1371.874268	670.633057	-373.355774	1369.005859	451.035614	-277.648010	1304.246094	316.494171	-324.972870	1237.848267	67.747375	-216.676559	1191.595947	58.367420	-158.984833	1376.259399	38.070744	-224.811096
1039	10.38000000	1329.109863	1475.376465	8.530621	1365.074463	1474.325928	-357.877930	1310.232910	1536.637451	-184.244217	1460.936035	1415.940552	-171.212418	1338.409302	1156.820068	131.209000	1323.757690	1163.401001	-482.416656	1451.323242	926.958099	118.354248	1415.070557	917.768921	-454.228500	1413.818848	945.978271	-19.524731	1432.759155	929.292786	-314.272583	1219.927856	954.110779	-121.875107	1224.814819	945.930054	-228.403168	1222.371338	950.020416	-175.139137	1222.034424	1208.930420	-190.794281	1506.224365	1256.271851	-155.501724	1407.395630	754.354065	72.870201	1469.994141	493.952881	12.975574	1436.303223	309.075165	78.302551	1467.426514	83.553085	-7.278497	1428.131348	66.055725	-62.181538	1614.506958	44.764507	-8.843221	1373.587891	670.386475	-373.259827	1370.228027	450.681885	-277.601135	1304.897339	316.373535	-324.938354	1237.871460	67.758698	-216.620010	1191.622192	58.403431	-158.878311	1376.214233	38.063133	-224.877289
1040	10.39000000	1331.251343	1474.717407	9.900586	1366.025513	1474.025391	-356.645294	1311.822998	1536.188721	-182.797882	1462.690796	1415.720459	-170.297272	1340.770752	1156.069092	132.276840	1325.472412	1162.942505	-481.227325	1453.412048	926.092682	119.441891	1417.479431	917.585327	-453.164841	1417.387329	945.395569	-19.423679	1434.876465	929.252747	-314.251343	1222.886963	953.447632	-120.775085	1227.311523	945.446838	-227.363937	1225.099243	949.447235	-174.069511	1224.126465	1208.317871	-189.241516	1508.303833	1256.108887	-155.018402	1411.243042	752.951050	72.054222	1471.685303	492.472534	11.665820	1437.941162	307.597382	77.326004	1467.324707	82.114182	-8.746704	1427.953613	64.309746	-63.545418	1614.634766	44.097153	-9.700389	1375.320312	670.126831	-373.101685	1371.484619	450.330872	-277.497070	1305.594727	316.264984	-324.857727	1237.901123	67.774101	-216.555557	1191.649658	58.435131	-158.762527	1376.172241	38.056114	-224.932877
